<?xml version="1.0" encoding="utf-8"?>
<!-- Generator: Adobe Illustrator 19.0.1, SVG Export Plug-In . SVG Version: 6.00 Build 0)  -->
<svg version="1.1" id="Layer_1" xmlns="http://www.w3.org/2000/svg" xmlns:xlink="http://www.w3.org/1999/xlink" x="0px" y="0px"
	 viewBox="-174 244.5 262 304.5" style="enable-background:new -174 244.5 262 304.5;" xml:space="preserve">
<style type="text/css">
	.st0{fill:#010101;}
	.st1{fill:#FFFFFF;}
</style>
<path class="st0" d="M-93.1,369.8c-5,0-8.5-11.4-9.5-14.4c-2.3-6.4-2.8-13.1-2.8-19.7c0-5.6,0.3-11,0.8-16.6c0.5-5,3.2-18.3,8.2-21
	c9-4.9,2.1,12.9,1.6,15.5c-0.8,4.7-1.4,9.5-1.3,14.3c0.2,9.2,2.7,17.6,5.6,26.3C-88.9,358.4-85,369.8-93.1,369.8z"/>
<path class="st0" d="M-136.5,369.8c-5,0-8.5-11.4-9.5-14.4c-2.3-6.4-2.8-13.1-2.8-19.7c0-5.6,0.3-11,0.8-16.6c0.5-5,3.2-18.3,8.2-21
	c9-4.9,2.1,12.9,1.6,15.5c-0.8,4.7-1.4,9.5-1.3,14.3c0.2,9.2,2.7,17.6,5.6,26.3C-132.3,358.4-128.4,369.8-136.5,369.8z"/>
<path class="st0" d="M9.9,359c-8.5-7.3-15.4-15.9-20.6-25.8c-5.7-10.8-7.2-19.2-7.2-19.3l-0.1-0.4l-0.1-0.3
	c-6.8-32.8-24.8-48.7-38.6-56.2c-14.4-7.8-27.5-8.5-30.8-8.6c-2.2-0.1-4.4-0.2-6.5-0.2c-23.8,0-42.8,7.3-56.6,21.6
	c-21.6,22.6-21.4,54.7-21.3,58.6c0,19.8,2.1,38.7,6.3,56.8l0.4,5.1c0.3,3.3,6.8,80.8,18.8,110.9c5.6,14,15,17.2,20,17.9
	c0.9,0.1,1.8,0.2,2.8,0.2c7.7,0,15.4-4.1,20.6-11c1.9-2.6,3.3-5.3,4.3-8.2c11.8,11,24.9,21.2,39.4,30.6c13,8.5,34.3,14.6,50.5,14.6
	c9.1,0,21.3-2.1,27.2-12c2.3-3.9,4.2-9.8,1.9-17.8c0.7,0.2,1.3,0.5,1.9,0.7c3.6,1.2,6.2,2.1,8.6,2.5c3.5,0.5,6.7,0.8,9.6,0.8
	c16.4,0,21.9-8.5,23.8-13.6c2.6-7,0.9-15-4.3-22.9c4.9-0.5,8.9-1.8,12.2-4c4.8-3,7.9-7.7,8.8-13c1.4-8.4-3-16.6-9.5-23
	c1-0.3,1.9-0.7,2.7-1.1c6.7-3.3,9.5-8,10.7-11.4c4.1-11.8-4.7-22.5-9.3-27c-3.7-4.8-14.4-13.5-49.8-33.5c-3-1.7-5.9-3.5-8.7-5.5
	 M59.2,431.8c-15.8,1-10.9,12.2-6.2,14.2c13.2,5.7,24,22.2,4.7,23.8c-5,0.4-29.1,1-16.3,11.9c11.5,9.7,18,24.4-0.7,24.4
	c-2.2,0-4.8-0.2-7.7-0.6c-3.5-0.5-16.5-6.4-24.4-6.4c-6,0-9,3.4-2.8,14.9c7,13-1.4,17.9-14.4,17.9c-13.8,0-32.6-5.5-43.4-12.5
	c-13.2-8.6-30.3-21.1-47-38.5c-5.3-5.6-10.6-11.7-15.7-18.3c0,0-15.1-22.1-23.8-38.8c0.2,1.2,6.8,39.7,27.6,63.7
	c2,6-0.9,10.9-2.3,12.8c-3,4-7.4,6.3-11.3,5.8c-5-0.6-8-5.7-9.6-9.8c-5.3-13.3-9.6-37.7-12.6-59.8c0,0-7.8-55.4-9.6-75.4
	c-1.4-10.4-2.1-21.4-2.1-33c0,0-2.9-66.9,64.7-66.9c2,0,4,0.1,6.1,0.2c1.6,0,45.7,0.5,56.8,54.3c0,0,5.7,37.4,44.8,62.5
	c2.3,2.2,4.6,4.3,7,6.5c4.6,4.3,11.9,9,14.1,15.1c4.6,12.5-8.8,21.7-19.5,22.7c-23.6,2.1-50-17.3-57.7-39.2
	c-2.6-7.4-14.2-4.3-11.6,3c10,28.6,44.5,53.7,75.5,47.2c15.1-3.2,27.8-16.4,25.8-32.6c-0.1-1.1-0.4-2.1-0.6-3.1
	c17.4,11.1,18.4,14.1,18.4,14.1S85.6,430.2,59.2,431.8z"/>
<path class="st1" d="M59.2,431.8c26.4-1.6,6.2-19.9,6.2-19.9s-1.1-3-18.4-14.1c0.3,1,0.5,2,0.6,3.1c2,16.2-10.7,29.4-25.8,32.6
	c-31,6.5-65.5-18.6-75.5-47.2c-2.6-7.3,9-10.4,11.6-3c7.7,21.9,34.1,41.3,57.7,39.2c10.7-1,24.1-10.2,19.5-22.7
	c-2.2-6.1-9.5-10.8-14.1-15.1c-2.3-2.2-4.6-4.4-7-6.5c-39.1-25.1-44.8-62.5-44.8-62.5c-11.1-53.8-55.2-54.3-56.8-54.3
	c-2.1-0.1-4.1-0.2-6.1-0.2c-67.6,0-64.7,66.9-64.7,66.9c0,11.6,0.7,22.6,2.1,33c1.8,20,9.6,75.4,9.6,75.4c3,22.1,7.3,46.5,12.6,59.8
	c1.6,4.1,4.6,9.2,9.6,9.8c3.9,0.5,8.3-1.8,11.3-5.8c1.4-1.9,4.3-6.8,2.3-12.8c-20.8-24-27.4-62.5-27.6-63.7
	c8.7,16.7,23.8,38.8,23.8,38.8c5.1,6.6,10.4,12.7,15.7,18.3c16.7,17.4,33.8,29.9,47,38.5c10.8,7,29.6,12.5,43.4,12.5
	c13,0,21.4-4.9,14.4-17.9c-6.2-11.5-3.2-14.9,2.8-14.9c7.9,0,20.9,5.9,24.4,6.4c2.9,0.4,5.5,0.6,7.7,0.6c18.7,0,12.2-14.7,0.7-24.4
	c-12.8-10.9,11.3-11.5,16.3-11.9c19.3-1.6,8.5-18.1-4.7-23.8C48.3,444,43.4,432.8,59.2,431.8z M-136.5,369.8c-5,0-8.5-11.4-9.5-14.4
	c-2.3-6.4-2.8-13.1-2.8-19.7c0-5.6,0.3-11,0.8-16.6c0.5-5,3.2-18.3,8.2-21c9-4.9,2.1,12.9,1.6,15.5c-0.8,4.7-1.4,9.5-1.3,14.3
	c0.2,9.2,2.7,17.6,5.6,26.3C-132.3,358.4-128.4,369.8-136.5,369.8z M-93.1,369.8c-5,0-8.5-11.4-9.5-14.4c-2.3-6.4-2.8-13.1-2.8-19.7
	c0-5.6,0.3-11,0.8-16.6c0.5-5,3.2-18.3,8.2-21c9-4.9,2.1,12.9,1.6,15.5c-0.8,4.7-1.4,9.5-1.3,14.3c0.2,9.2,2.7,17.6,5.6,26.3
	C-88.9,358.4-85,369.8-93.1,369.8z"/>
</svg>
