<?xml version="1.0" encoding="utf-8"?>
<!-- Generator: Adobe Illustrator 19.0.1, SVG Export Plug-In . SVG Version: 6.00 Build 0)  -->
<svg version="1.1" id="Layer_1" xmlns="http://www.w3.org/2000/svg" xmlns:xlink="http://www.w3.org/1999/xlink" x="0px" y="0px"
	 viewBox="172 244 263 303" style="enable-background:new 172 244 263 303;" xml:space="preserve">
<style type="text/css">
	.st0{fill:#010101;}
	.st1{fill:#FFFFFF;}
</style>
<g>
	<path class="st0" d="M431.5,430.5c4.1-11.8-4.7-22.5-9.3-27c-3.7-4.8-14.4-13.5-49.8-33.5c-15.6-8.8-27.7-20.9-35.9-35.9
		c-6-11-7.6-19.6-7.7-20.3l-0.1-0.4l-0.1-0.3c-6.8-32.8-24.8-48.7-38.6-56.2c-14.4-7.8-27.5-8.5-30.8-8.6c-2,0-4.2-0.1-6.4-0.1
		c-23.8,0-42.8,7.3-56.6,21.6c-21.6,22.6-21.4,54.7-21.3,58.6c0,49.5,13.1,93.8,39,131.8l-3.7,1.6l-8.6,3.7l3.7,8.6l20.5,47.9
		l3.7,8.6l8.6-3.7l27.6-11.8c6.9,5.4,14.1,10.6,21.7,15.5c13,8.5,34.3,14.6,50.6,14.6c9.1,0,21.3-2.1,27.2-12
		c2.3-3.9,4.2-9.8,1.9-17.8c0.7,0.2,1.3,0.5,1.9,0.7c3.6,1.2,6.2,2.1,8.6,2.5c3.5,0.5,6.7,0.8,9.6,0.8c16.4,0,21.9-8.5,23.8-13.6
		c2.6-7,0.9-15-4.3-22.9c4.9-0.5,8.9-1.8,12.2-4c4.8-3,7.9-7.7,8.8-13c1.4-8.4-3-16.6-9.5-23c1-0.3,1.9-0.7,2.7-1.1
		C427.5,438.7,430.3,433.9,431.5,430.5z M257.4,508.3l-23,9.9l-20.5-47.9l5.5-2.3l12.3-5.3l14.3-6.1c13,7.6,27.9,11.2,42,8.2
		c15.1-3.2,27.8-16.4,25.8-32.6c-0.2-1.5-0.5-2.9-1-4.3l0.3-0.1l20.5,47.9l-62.8,26.9L257.4,508.3z M405.7,432
		c-15.8,1-10.9,12.2-6.2,14.2c13.2,5.7,24,22.2,4.7,23.8c-5,0.4-29.1,1-16.3,11.9c11.5,9.7,18,24.4-0.7,24.4c-2.2,0-4.7-0.2-7.7-0.6
		c-3.5-0.5-16.5-6.4-24.4-6.4c-6,0-9,3.4-2.8,15c7,13-1.4,17.9-14.4,17.9c-13.8,0-32.6-5.5-43.4-12.5c-4.6-3-9.7-6.5-15.1-10.5
		l57.9-24.8l8.6-3.7l-3.7-8.6l-20.5-47.9l-3.7-8.6l-8.6,3.7l-1.2,0.5c-2.2-2.7-4.7-5.1-7.4-7.6c-7.3-6.8-14.6-13.6-21.9-20.4
		c-5.6-5.3-14.1,3.2-8.5,8.5c5.6,5.2,11.2,10.4,16.8,15.7c2.8,2.7,6.7,5.5,9.7,8.6c1.9,2,3.5,4.1,4.4,6.5c0.2,0.5,0.4,1,0.5,1.6
		c3,11.7-9.7,20.2-20,21.1c-7.1,0.6-14.4-0.7-21.4-3.4c-3.7-1.4-7.3-3.3-10.8-5.5c-11.7-7.4-21.3-18.5-25.5-30.3
		c-2.6-7.5-14.2-4.3-11.6,3c4.3,12.3,13.2,24,24.3,32.8l-10.8,4.6c-21.4-30.8-38.1-72-38.1-126.6c0.1-0.1-2.8-67,64.8-67
		c2,0,4,0.1,6.1,0.2c0.8,0,12.2,0.1,24.8,7c12.6,6.8,26.4,20.4,32,47.3c0,0,6.2,40.8,50.2,65.7c43.9,24.8,46,30.5,46,30.5
		S432.1,430.4,405.7,432z"/>
	<path class="st1" d="M333.6,475.7l-62.8,26.9l-13.4,5.7l-23,9.9l-20.5-47.9l5.5-2.3l12.3-5.3l14.3-6.1c13,7.6,27.9,11.2,42,8.2
		c15.1-3.2,27.8-16.4,25.8-32.6c-0.2-1.5-0.5-2.9-1-4.3l0.3-0.1L333.6,475.7z"/>
	<path class="st1" d="M405.7,432c26.4-1.6,6.2-19.9,6.2-19.9s-2.1-5.7-46-30.5c-44-24.9-50.2-65.7-50.2-65.7
		c-5.5-26.9-19.4-40.5-32-47.3c-12.6-6.9-24-7-24.8-7c-2.1-0.1-4.1-0.2-6.1-0.2c-67.6,0-64.7,66.9-64.8,67
		c0,54.6,16.6,95.8,38.1,126.6l10.8-4.6c-11.2-8.8-20-20.5-24.3-32.8c-2.6-7.3,9-10.5,11.6-3c4.2,11.8,13.8,23,25.5,30.3
		c3.4,2.2,7.1,4,10.8,5.5c7,2.7,14.3,4,21.4,3.4c10.2-1,23-9.5,20-21.1c-0.1-0.5-0.3-1-0.5-1.6c-0.8-2.3-2.4-4.5-4.4-6.5
		c-3-3.2-6.9-6-9.7-8.6c-5.6-5.3-11.2-10.5-16.8-15.7c-5.6-5.3,2.9-13.8,8.5-8.5c7.3,6.8,14.6,13.6,21.9,20.4
		c2.7,2.5,5.2,4.9,7.4,7.6l1.2-0.5l8.6-3.7l3.7,8.6l20.5,47.9l3.7,8.6l-8.6,3.7l-57.9,24.8c5.4,4,10.5,7.5,15.1,10.5
		c10.8,7,29.6,12.5,43.4,12.5c13,0,21.4-4.9,14.4-17.9c-6.2-11.6-3.2-15,2.8-15c7.9,0,20.9,5.9,24.4,6.4c3,0.4,5.5,0.6,7.7,0.6
		c18.7,0,12.2-14.7,0.7-24.4c-12.8-10.9,11.3-11.5,16.3-11.9c19.3-1.6,8.5-18.1-4.7-23.8C394.8,444.2,389.9,433,405.7,432z
		 M212.3,327.1v7.8c0,8,1.2,16.5,2.4,24.7c0.2,1.6,0.5,3.2,0.7,4.7c0.5,3.6-2,6.9-5.6,7.4c-0.3,0-0.6,0.1-0.9,0.1
		c-3.2,0-6.1-2.4-6.5-5.7c-0.2-1.5-0.4-3.1-0.7-4.6c-1.2-8.2-2.5-17.6-2.5-26.5v-7.5c-0.1-4.7,0.9-12.8,3.5-20.2
		c1.2-3.4,4.9-5.3,8.4-4.1c3.4,1.2,5.3,4.9,4.1,8.4C212.9,317.8,212.2,324.3,212.3,327.1z"/>
	<path class="st0" d="M215.3,364.3c0.5,3.6-2,6.9-5.6,7.4c-0.3,0-0.6,0.1-0.9,0.1c-3.2,0-6.1-2.4-6.5-5.7c-0.2-1.5-0.4-3.1-0.7-4.6
		c-1.2-8.2-2.5-17.6-2.5-26.5v-7.5c-0.1-4.7,0.9-12.8,3.5-20.2c1.2-3.4,4.9-5.3,8.4-4.1c3.4,1.2,5.3,4.9,4.1,8.4
		c-2.2,6.3-2.8,12.8-2.8,15.7v7.8c0,8,1.2,16.5,2.4,24.7C214.9,361.2,215.1,362.8,215.3,364.3z"/>
</g>
<g id="Layer_1_1_">
</g>
</svg>
