<?xml version="1.0" encoding="utf-8"?>
<!-- Generator: Adobe Illustrator 19.0.1, SVG Export Plug-In . SVG Version: 6.00 Build 0)  -->
<svg version="1.1" id="Layer_1" xmlns="http://www.w3.org/2000/svg" xmlns:xlink="http://www.w3.org/1999/xlink" x="0px" y="0px"
	 viewBox="62.1 141.6 534 540" style="enable-background:new 62.1 141.6 534 540;" xml:space="preserve">
<style type="text/css">
	.st0{fill:#D1D2D1;}
	.st1{fill:none;stroke:#010101;stroke-width:5;stroke-linecap:round;stroke-miterlimit:10;}
	.st2{fill:none;stroke:#010101;stroke-width:8;stroke-linecap:round;stroke-miterlimit:10;}
	.st3{fill:#010101;}
	.st4{fill:#FFFFFF;}
	.st5{fill:none;stroke:#010101;stroke-width:13.1839;stroke-linecap:round;stroke-miterlimit:10;}
</style>
<g id="Layer_2">
	<circle class="st0" cx="354.7" cy="441" r="238.1"/>
</g>
<g id="Layer_1_1_">
	<path class="st1" d="M520.9,304.5c14.5,30.7,22.5,65,22.5,101.3c0,131.2-106.1,237.6-237.1,237.6S69.3,537,69.3,405.8
		s106.1-237.6,237.1-237.6c15.3,0,30.2,1.5,44.7,4.2"/>
	<path class="st2" d="M351.1,172.4"/>
	<path class="st3" d="M438.5,146.8c-49,0-88.9,39.9-88.9,88.9c0,8,1.1,15.8,3.1,23.2c1.3,4.8,3,9.5,5.1,13.9
		c-0.1-18.7,3.7-29.6,3.7-29.6c2.8-9.8,8.8-18.4,16.8-24.4c7.9-6.1,17.8-9.7,28.6-9.7c26,0,47.2,21.2,47.2,47.2
		c0,25.5-20.4,46.4-45.8,47.1l0,0c-7.5,0.4-21.1-2.1-32-4.5c2.1,2,4.2,4,6.5,5.8c15.2,12.3,34.7,19.7,55.7,19.7
		c49,0,88.9-39.9,88.9-88.9S487.5,146.8,438.5,146.8z M438.5,317.5c-11.8,0-23.1-2.5-33.3-7.1c0.5,0,1.1,0,1.6,0
		c29.9,0,54.2-24.3,54.2-54.2c0-29.9-24.3-54.2-54.2-54.2c-22.7,0-42.1,14-50.2,33.8v-0.2c0-45.1,36.7-81.9,81.9-81.9
		s81.9,36.7,81.9,81.9C520.3,280.8,483.6,317.5,438.5,317.5z"/>
	<path class="st4" d="M520.3,235.7c0,45.1-36.7,81.9-81.9,81.9c-11.8,0-23.1-2.5-33.3-7.1c0.5,0,1.1,0,1.6,0
		c29.9,0,54.2-24.3,54.2-54.2c0-29.9-24.3-54.2-54.2-54.2c-22.7,0-42.1,14-50.2,33.8v-0.2c0-45.1,36.7-81.9,81.9-81.9
		S520.3,190.5,520.3,235.7z"/>
	<path class="st3" d="M364.1,486.4c4.1-11.8-4.7-22.5-9.3-27c-3.7-4.8-14.4-13.5-49.8-33.5c-15.7-8.8-27.7-20.9-35.9-35.9
		c-6-11-7.6-19.7-7.7-20.3v-0.4l-0.1-0.3c-6.8-32.8-24.8-48.7-38.6-56.2c-14.4-7.8-27.5-8.5-30.8-8.6c-2.2-0.1-4.4-0.2-6.5-0.2
		c-23.8,0-42.8,7.3-56.6,21.6c-21.6,22.6-21.4,54.7-21.3,58.7c0,51.1,14,96.7,41.6,135.6c18,25.3,41.8,47.7,70.9,66.6
		c13,8.5,34.3,14.6,50.5,14.6c9.1,0,21.3-2.1,27.2-12c2.3-3.9,4.2-9.8,1.9-17.8c0.7,0.2,1.3,0.5,1.9,0.7c3.6,1.2,6.2,2.1,8.6,2.5
		c3.5,0.5,6.7,0.8,9.6,0.8c16.4,0,21.9-8.5,23.8-13.6c2.6-7,0.9-15-4.3-22.9c4.9-0.5,8.9-1.8,12.2-4c4.8-3,7.9-7.7,8.8-13
		c1.4-8.4-3-16.6-9.5-23c1-0.3,1.9-0.7,2.7-1.1C360,494.5,362.9,489.8,364.1,486.4z M338.3,487.7c-15.8,1-10.9,12.2-6.2,14.2
		c13.2,5.7,24,22.2,4.7,23.8c-5,0.4-29.1,1-16.3,11.9c11.5,9.7,18,24.4-0.7,24.4c-2.2,0-4.8-0.2-7.7-0.6c-3.5-0.5-16.5-6.4-24.4-6.4
		c-6,0-9,3.4-2.8,15c7,13-1.4,17.9-14.4,17.9c-13.8,0-32.6-5.5-43.4-12.5C189.6,551,120.6,495.1,120.7,384c0,0-2.9-66.9,64.7-66.9
		c2,0,4,0.1,6.1,0.2l0,0c1.6,0,45.7,0.5,56.8,54.3c0,0,6.2,40.8,50.1,65.7c43.9,24.8,46,30.5,46,30.5S364.7,486.1,338.3,487.7z"/>
	<path class="st4" d="M338.3,487.7c26.4-1.6,6.2-19.9,6.2-19.9s-2.1-5.7-46-30.5s-50.1-65.7-50.1-65.7
		c-11.2-53.8-55.2-54.3-56.8-54.3l0,0c-2.1-0.1-4.1-0.2-6.1-0.2c-67.6,0-64.7,66.9-64.7,66.9c0,111,69,167,106.5,191.3
		c10.8,7,29.6,12.5,43.4,12.5c13,0,21.4-4.9,14.4-17.9c-6.2-11.6-3.2-15,2.8-15c7.9,0,20.9,5.9,24.4,6.4c2.9,0.4,5.5,0.6,7.7,0.6
		c18.8,0,12.2-14.6,0.7-24.4C307.9,526.6,332,526,337,525.6c19.4-1.5,8.5-18.1-4.7-23.8C327.4,499.9,322.6,488.7,338.3,487.7z
		 M246.8,494c-5.1,6.6-13.4,10.2-21.7,10.8s-16.6-1.5-24.4-4.5c-18-7.1-34-23.6-39.1-39.1l56.4-20c8.3,7.7,16.5,15.4,24.8,23.1
		c2.1,2,4.2,3.9,5.7,6.3C253.1,477.6,251.9,487.4,246.8,494z"/>
	<path class="st5" d="M139.3,399.2c-2-8.5-2.2-25.7,2.1-34.1"/>
	<g>
		
			<rect x="173.8" y="461" transform="matrix(0.8155 -0.5788 0.5788 0.8155 -242.8764 220.3285)" class="st4" width="100.7" height="60.2"/>
		<path class="st3" d="M247,441.5l31.5,44.4l-77.4,54.9l-31.5-44.4L247,441.5 M248.4,433.3l-4.8,3.4l-77.4,54.9l-4.8,3.4l3.4,4.8
			l31.5,44.4l3.4,4.8l4.8-3.4l77.4-54.9l4.8-3.4l-3.4-4.8l-31.5-44.4L248.4,433.3L248.4,433.3z"/>
	</g>
	<g>
		<path class="st4" d="M218,441.1c8.3,7.7,16.5,15.4,24.8,23.1c2.1,2,4.2,3.9,5.7,6.3c4.5,7,3.4,16.8-1.7,23.4
			c-5.1,6.6-13.4,10.2-21.7,10.8s-16.6-1.5-24.4-4.5c-18-7.1-34-23.6-39.1-39.1"/>
		<g>
			<path class="st3" d="M213.8,445.4c5.6,5.2,11.2,10.4,16.8,15.7c4.6,4.3,11.9,9,14.1,15.1c4.6,12.5-8.8,21.7-19.5,22.7
				c-23.6,2.1-50-17.3-57.7-39.2c-2.5-7.2-14.1-4.1-11.6,3.2c10,28.5,44.5,53.7,75.5,47.1c15.1-3.2,27.8-16.4,25.8-32.6
				c-1.1-8.7-6.8-14.3-13-20c-7.3-6.8-14.6-13.6-21.9-20.4C216.6,431.6,208.1,440.1,213.8,445.4L213.8,445.4z"/>
		</g>
	</g>
</g>
</svg>
